# File exported by ZBrush version 2019
# www.zbrush.com
#Vertex Count 738
#Face Count 714
#Auto scale x=0.002085 y=0.002085 z=0.002085
#Auto offset x=0.000000 y=0.000000 z=0.000000
v 134.0231864 -195.05232053 -50.0267671
v 121.56110244 -242.13153309 105.03408463
v 133.25565021 193.74347176 -103.71643653
v 134.72964907 1.40720685 -137.25713738
v 59.85055264 0.17201228 40.32169749
v 17.44300608 19.47947595 2.90640998
v 25.64309689 139.469937 3.12431317
v 68.81737905 104.18912005 38.12762593
v 36.21887861 199.63306249 -99.61048678
v 119.12639669 204.51894326 97.89623256
v 27.37328426 240.70785697 -4.98315234
v 21.95638419 -234.33516791 9.55261457
v 36.31334812 -176.52394439 -72.41326778
v 36.35475001 11.62409592 -136.9629209
v 51.62918903 -135.50084509 38.41027677
v 16.03877284 -136.46932914 18.01824363
v 120.60965951 -9.33715604 143.07907834
v -107.47954116 54.44234468 -137.87367675
v -70.37978582 189.75059092 -114.51237309
v -94.10181204 202.2983379 -59.6703772
v -161.818038 56.16978717 -86.02130207
v -70.48775097 43.56668517 -31.31800109
v -44.44161466 131.77055747 -25.27529769
v -97.92245186 -98.72041043 -108.79626
v -126.36006212 -125.27068912 -62.49812931
v -61.8176 -80.7066987 -23.88221551
v 70.32260088 -6.76749384 88.98661968
v 76.13533507 135.29360689 68.64633891
v 65.58334228 -157.11720767 75.87182689
v 15.03071682 -204.20145251 36.87051523
v -98.48572346 -105.48195704 -28.48694656
v -133.7601357 48.31166226 -46.78558222
v -76.44093135 173.96297431 -25.59929323
v 24.05598623 199.98120437 21.57394565
v -5.91337966 -107.87320224 27.08830314
v -4.26565297 -22.49060585 26.72600799
v -5.24545963 -23.52084962 55.28356365
v -5.35433975 -105.88636889 54.29186252
v -167.50816768 -205.52036583 -39.14844849
v -192.96827279 -232.46224695 73.19265554
v -171.36437653 189.82836243 -103.59097278
v -164.8985904 -18.68803647 -134.56295499
v -254.0882166 0.15691545 40.29056029
v -296.43640519 19.22603233 2.91987703
v -288.29018259 138.54308359 3.02149466
v -245.07095308 104.18866257 38.12759734
v -278.44774047 198.40747498 -98.61787784
v -204.8740617 204.02303552 94.22830511
v -284.93937419 239.3857413 -4.82556496
v -296.44212369 -229.26034812 11.62756991
v -284.43454559 -169.98519029 -71.88999704
v -284.37770376 17.36226095 -135.84900127
v -263.86283739 -135.97387887 38.71146982
v -298.72551811 -136.6573532 18.11978978
v -204.76541033 -7.66689848 144.38363824
v -422.71823832 53.83023714 -137.78784216
v -385.88462167 189.12933379 -114.10370811
v -408.34114529 202.08560995 -59.3910288
v -477.13976769 55.21182515 -86.10915242
v -383.96824015 42.55062326 -31.22134426
v -359.4902291 136.99771793 -25.27371081
v -412.91628313 -99.42584377 -109.96283981
v -438.66368535 -118.80284433 -62.09561885
v -375.9178595 -80.9116495 -23.8917654
v -243.28712624 -7.3256188 89.54857603
v -233.19958949 133.63844616 67.28262119
v -253.55731167 -157.40541974 79.32410995
v -303.44327517 -202.75718981 40.17747708
v -413.67958763 -106.36992469 -27.72256984
v -447.90774432 47.76039949 -46.65501472
v -390.18835981 173.14591597 -25.30324683
v -288.65536558 199.57313268 21.35262566
v -320.51972583 -107.47062031 27.03583596
v -318.17171243 -22.48877593 26.76106236
v -319.17439307 -23.44628046 54.80824248
v -320.69208122 -105.16446628 53.50419724
v -258.9561413 123.22163856 22.81553064
v -292.81534079 86.41009529 -1.08425494
v -264.29195313 6.62750512 23.48681029
v -244.63280211 63.05027844 39.74647423
v -261.99197508 73.33258707 19.09477861
v -240.41072406 222.50657866 30.50445962
v -207.96113319 218.51095294 -11.27216554
v -230.19806667 189.4143435 -87.48572246
v -280.34262044 235.31874878 -49.96752351
v -234.06902923 224.30996274 -25.80574514
v -226.57391429 -178.92296675 -49.04926213
v -179.36237578 -231.40135205 9.55497345
v -247.36201028 -231.99470293 49.00997608
v -289.04479498 -215.40283741 -28.13172804
v -234.58906902 -221.37065713 5.11988152
v -284.69862561 -86.36160246 -111.05625864
v -227.26413644 2.63965655 -128.57817993
v -160.23939071 -116.0177093 -93.83849686
v -226.0887573 -98.6764924 -96.94549015
v -267.5058608 -142.53367703 34.53809903
v -263.33010254 -79.06251747 30.85458868
v -299.21467803 -64.67387309 10.63245198
v -268.03127598 -77.23534446 25.62212432
v -453.37119293 137.90261233 -77.92390825
v -401.07248269 202.84685579 -90.25449545
v -406.58739774 136.9849085 -131.25848068
v -463.24102663 58.61775983 -115.21058684
v -441.64633715 140.99471609 -107.27664901
v -327.59235848 142.67641063 -14.84453697
v -373.19894462 100.99591333 -30.49868395
v -340.35980998 32.12329363 -17.17027683
v -333.37718642 94.94025754 -18.84146364
v -369.93906027 -188.89281691 -28.04073252
v -431.22632719 -111.97313328 -91.97313146
v -358.63142576 -138.69405182 -96.1073949
v -364.94121139 -178.03682901 -62.59970405
v -425.26525529 -34.55525451 -128.2086223
v -355.70653075 37.07001917 -143.10056558
v -358.85490448 -60.06065008 -125.62580756
v -347.13267921 235.4967083 -34.74560886
v -338.24991465 200.89158852 -110.74136265
v -342.16239347 232.88175563 -72.05102981
v -474.6205426 -33.40698103 -81.31400985
v -462.8300957 -29.59480458 -110.20391719
v -341.97825799 -111.28965895 -6.82141923
v -384.16026716 -27.0471014 -28.84839823
v -342.32136759 -43.87411137 -11.66395382
v -281.33923947 119.09380128 -131.79483248
v -346.17563215 130.17852891 -138.18810811
v -169.67044441 88.64579747 -138.26502185
v -229.54936078 106.90517568 -125.79924947
v -203.78045702 93.19726075 134.66065545
v -224.16963092 155.53753105 81.69917182
v -229.62678918 68.98058485 80.35867119
v -217.72100026 -11.61723373 113.33107532
v -216.56060358 78.64621115 100.60331016
v -237.90019108 -183.07322053 96.60731274
v -206.08672542 -110.94197455 137.88099642
v -246.67167375 -89.72910887 86.37040894
v -219.95944733 -104.37805907 108.61100226
v -269.09674567 -201.03798195 65.88447814
v -302.68408798 -220.36694717 36.57285335
v -260.36780858 -220.54078937 67.02425966
v -430.8550826 -115.34338456 -37.92600615
v -358.97659402 -168.75045319 2.28475256
v -367.56291188 -182.4386965 -3.84344231
v -469.36890699 50.64572253 -62.06358099
v -444.14577625 -31.13285057 -43.39325756
v -465.64479534 -34.08267821 -56.99732464
v -428.4224355 119.48494623 -40.26098138
v -403.34649878 190.07814622 -36.6470508
v -446.77159405 129.608052 -54.37007722
v -339.10711681 199.43314396 -3.7857713
v -287.56805124 223.60910419 17.68326858
v -345.5260113 221.20367712 -11.90556017
v -252.60724117 177.16075582 46.54356128
v -246.29814176 200.9432837 50.34001187
v -239.58623168 118.21132337 51.68800373
v -251.61839929 17.89934185 63.02260093
v -237.12705077 64.71413128 60.57974632
v -327.34120225 -63.39979276 55.75310914
v -324.31932159 -12.05092427 37.06191321
v -326.32811396 -64.19763696 23.2685068
v -326.97681985 -114.75506595 35.50845588
v -340.02127517 -61.38047836 33.45044158
v -263.44550174 -163.53701712 56.6441076
v -300.81551308 -178.36346936 30.68290521
v -268.79480922 -181.15592406 50.79177285
v -393.85757392 -94.52578114 -25.44566591
v -348.79447339 -148.67625392 -0.59749678
v -419.66696461 47.42232216 -37.97904518
v -417.41627997 -26.25154459 -36.68979654
v -373.81871494 155.06358232 -24.37763719
v -404.10042495 110.11073434 -34.80225053
v -287.78958567 173.90944921 13.45645847
v -331.26054326 175.38116067 -7.52423637
v -256.28972219 154.74837896 34.85896369
v -289.6910991 -120.91594202 62.7414512
v -287.6262655 -17.91535364 70.19828084
v -289.60269119 -72.58277822 69.99018486
v -292.59197644 -123.17634809 31.09845383
v -292.71629649 -141.02399477 44.68845343
v -288.28537905 -15.02637076 33.90358929
v -292.26453551 -71.941392 26.85277269
v -287.97303494 4.4883311 51.03875458
v -249.92869886 112.93567009 31.73659481
v -260.56109366 100.47072689 19.78723097
v -251.68542004 66.97453736 29.33071026
v -244.31611195 87.53000504 38.72144859
v -250.88368726 92.56365168 29.43142722
v -271.85122958 132.0573971 13.00574112
v -290.23847329 114.49796249 -0.02892128
v -275.79355893 80.17556503 8.88194967
v -273.74359342 108.19892763 9.83821043
v -294.91459973 54.84218174 -0.15235496
v -278.20973677 12.68133099 13.53367243
v -263.02290508 42.31502133 20.56927784
v -277.12036377 48.60856644 10.14040422
v -255.65485505 1.88115559 32.24243844
v -247.13475735 34.49395226 41.06961924
v -253.11138355 36.9378076 30.77870427
v -259.97449061 232.19965373 11.97195188
v -237.23913324 226.58226329 5.31895657
v -255.2086982 229.66979225 -37.53121566
v -282.75433785 240.55094151 -25.51616064
v -257.5794712 234.05336056 -10.52786074
v -224.64552394 213.05734015 51.99694534
v -206.18576972 217.02871945 37.70359965
v -215.46459713 222.55964628 -16.47307812
v -220.48886545 222.22339887 21.82075582
v -191.78900508 215.80587682 -57.31950456
v -204.55702843 187.32457727 -89.31639805
v -231.42285359 212.57103947 -58.25995369
v -209.80523294 211.90952415 -55.53799372
v -253.56531756 193.52662649 -91.59884177
v -278.63748008 221.87662943 -75.19868873
v -253.66676363 216.85762213 -65.6231144
v -253.50847574 -175.7572088 -59.784647
v -227.7641615 -205.35247086 -22.0705825
v -257.56860606 -221.07832775 -12.13604405
v -286.10606121 -197.18691975 -50.22395505
v -255.0207885 -202.76954176 -36.01591498
v -200.00247717 -183.20726202 -41.83225182
v -173.40061766 -225.20662251 -12.65914323
v -222.99882657 -219.12443292 19.0401527
v -206.67195603 -208.56077441 -10.42697222
v -186.86069309 -237.51327781 36.19561864
v -235.44467001 -223.91470048 67.59662366
v -243.03962985 -229.23381431 30.17488855
v -233.98405242 -222.77557659 44.46437426
v -265.63545598 -234.90747474 29.01201862
v -292.61805277 -225.81644265 -7.0393939
v -260.96619173 -231.5564376 10.2064957
v -284.24366228 -132.44259482 -92.50970484
v -253.82447968 -93.66343233 -103.29796433
v -225.16533499 -143.05794851 -74.35097927
v -253.19807591 -138.97402925 -82.65022161
v -284.93948856 -35.1861187 -125.99706645
v -254.66132401 9.70313962 -131.16641294
v -226.76353953 -49.19414016 -115.81823395
v -254.419203 -42.96555714 -120.08014132
v -198.71936162 -5.93991347 -129.26788742
v -162.87367188 -69.00757614 -116.44226455
v -196.49681197 -104.15755396 -92.83410783
v -198.07694607 -56.47172362 -113.97327642
v -163.55485882 -156.35138703 -70.35539644
v -196.22198117 -146.278604 -70.76464042
v -280.62259788 -141.4489932 27.80814709
v -267.86132235 -113.65116799 28.76535141
v -281.2093153 -72.27214966 19.30601975
v -298.93367127 -104.46864 13.75646493
v -280.91378356 -110.84819126 22.44768855
v -261.29306082 -140.59304911 38.52034347
v -263.96256791 -110.96942332 33.03713747
v -261.39324882 -79.52182686 29.69061794
v -261.59476853 -113.62326174 32.59170972
v -260.25595485 -40.58483396 33.69942478
v -266.41603033 -34.72360695 25.02877344
v -259.02076028 -38.66799497 30.95939437
v -298.10574779 -21.64655622 7.21905467
v -279.93546371 -28.87839173 17.01863668
v -468.14806583 97.75695866 -83.7179644
v -450.09232318 140.32176378 -92.47143383
v -454.84381935 101.10067612 -113.03191233
v -473.2316921 57.44203758 -100.69213266
v -464.38764175 100.06219772 -98.28747044
v -433.28098187 173.36230376 -69.57682356
v -406.25206528 204.37529471 -74.51395633
v -423.80303652 175.55774775 -99.19746144
v -430.64121094 175.79883943 -84.23327214
v -393.39311789 196.83237316 -104.44980472
v -395.49969649 169.37994494 -122.40097757
v -427.44708926 139.61907531 -120.78187194
v -412.47035502 172.47250618 -112.60025901
v -415.98665662 97.03322613 -137.00206399
v -446.59409202 57.69182137 -128.15012211
v -438.91541343 100.20950611 -126.49111569
v -312.4666003 91.29460362 -10.4767517
v -337.32306124 65.42551186 -18.6962568
v -317.74602778 25.77942578 -7.56771121
v -315.4996892 60.43212342 -9.91200759
v -307.52662258 142.12194551 -6.49120483
v -329.61899255 120.72380064 -17.50949786
v -309.43225332 118.64821627 -9.34404682
v -346.23007221 140.43110137 -21.38430611
v -365.74443098 122.96773745 -28.10107692
v -354.0791619 97.81414359 -25.67865163
v -348.95859416 121.3642719 -23.93565483
v -379.60823204 73.81980271 -31.46176401
v -362.78282324 37.909494 -25.21009257
v -359.09805482 69.85437064 -26.03978878
v -326.03132415 -201.06451576 -45.02361432
v -361.24146053 -162.86497977 -79.63298008
v -321.10873065 -157.50332035 -84.52079084
v -323.06388355 -183.92550479 -65.10823555
v -331.91451017 -213.45443233 -7.02022266
v -368.07151469 -186.3098878 -45.05548063
v -329.18438705 -210.52290387 -25.20919191
v -406.98895034 -156.81847358 -46.86927237
v -436.84131587 -116.70484347 -77.77495579
v -401.38219629 -147.8564507 -78.41035189
v -405.4025259 -154.49768021 -62.9582107
v -422.07753832 -105.39320602 -103.14409397
v -391.42847229 -117.1765048 -104.95778563
v -395.58295775 -136.28267751 -92.19377953
v -420.0454145 -73.00914909 -118.94668588
v -394.84538647 -45.44189353 -129.15895012
v -358.41766848 -103.59714161 -111.82287986
v -392.71010103 -85.96954256 -117.77631758
v -426.06435756 9.02103772 -134.64990468
v -391.52534357 46.64277714 -142.52795854
v -358.15782014 -11.91047807 -136.3252517
v -394.58748242 0.04803534 -137.61297064
v -318.83402834 26.77810347 -140.4795799
v -320.81800244 -74.716005 -119.07503032
v -320.40981638 -24.42574402 -132.01102012
v -320.70443316 -120.31344155 -102.81971958
v -379.0450748 222.7151893 -47.75182175
v -345.24214529 237.04847867 -52.21960918
v -373.30164876 221.77186663 -81.36168779
v -377.19365538 224.67777624 -63.85381254
v -314.93973433 240.92470224 -20.42667291
v -310.21088338 237.0946841 -61.65106318
v -312.87901804 242.13199057 -39.4801497
v -307.55555815 201.52565507 -105.59243833
v -339.12347171 221.37065713 -92.08615748
v -308.01726931 224.12651348 -84.41113158
v -366.3858172 195.93662835 -113.48193632
v -368.52956601 212.58613629 -98.25127238
v -461.23560818 -77.12097459 -73.58577337
v -471.58699621 -31.40001858 -96.28605493
v -451.53121049 -72.12392631 -102.73518595
v -458.85191139 -75.12773653 -88.9290273
v -479.6319443 11.14374248 -85.36654887
v -466.31608928 14.56614641 -114.25360412
v -476.02603391 13.26141496 -100.06019625
v -447.71411614 -29.81485221 -121.43416619
v -449.89640759 13.59628993 -126.37108451
v -438.88075936 -69.92573744 -113.33601467
v -362.03758918 -94.41049631 -17.64498327
v -341.75866784 -80.41391184 -9.21448006
v -363.97970391 -33.91066593 -21.62974385
v -380.32361556 -58.84421217 -26.64863678
v -362.30898888 -67.41280269 -19.65357549
v -319.93335151 -126.4477838 5.95561074
v -320.22488031 -54.71363 -0.15845945
v -319.95599675 -93.72747946 2.81058232
v -341.98878001 -5.20291404 -14.38532765
v -319.39032338 -13.49838932 -3.65278774
v -385.49370546 8.00360338 -30.36671541
v -364.36901894 2.36837123 -23.57697663
v -378.65976272 134.01037697 -136.89098225
v -351.3952442 84.48502167 -144.38360965
v -385.92808222 91.61300933 -142.8059345
v -341.14633157 170.05289725 -126.4420939
v -371.01013408 169.69011603 -126.57472006
v -279.69848934 163.52375021 -117.9013024
v -312.56507275 125.06207848 -136.10111535
v -309.44540586 167.92699014 -123.19055855
v -282.92783694 68.92202748 -138.46532638
v -315.91336501 76.60448026 -142.55949603
v -170.26162226 139.47268188 -125.66583701
v -202.42128551 99.70582121 -128.72028449
v -230.17748009 153.30503122 -110.38444288
v -203.44260843 148.50012432 -113.42412235
v -167.2598707 34.89378932 -141.91423553
v -228.23536536 55.19306849 -132.38575299
v -200.32214095 46.81936422 -134.49371833
v -254.63890751 113.00474949 -127.4551822
v -254.60448218 62.03375905 -134.23148252
v -254.28813513 158.18542224 -112.67296965
v -203.0316775 42.12470987 140.79022276
v -209.64031159 86.00751335 114.40134854
v -216.4755124 34.3571659 108.43521578
v -209.80077252 -10.38981631 127.00862505
v -208.92675799 37.88982239 122.40789695
v -212.4304789 147.59065513 121.36478656
v -219.35122837 175.54219345 89.52009793
v -218.8295874 119.96941699 92.02199598
v -215.08580413 133.39964188 104.84400191
v -228.76352541 142.64255715 74.25961204
v -229.62507363 103.34507042 74.38015788
v -223.6010983 72.8952367 89.84636657
v -224.59714548 110.2209869 82.6758905
v -233.19490033 32.37673726 86.29589698
v -228.32274394 -11.00604116 101.74549344
v -225.10506207 32.14250777 96.95436811
v -245.08696486 -168.51485126 89.20146348
v -225.9836514 -147.43831446 104.21185106
v -231.43749293 -97.91021428 97.25021436
v -247.49033327 -123.46501764 84.44044601
v -235.08886535 -135.43359561 94.78297038
v -223.67589619 -203.23800074 98.18415871
v -199.02827463 -171.40429161 122.4604785
v -211.22170376 -109.51143624 121.45702586
v -215.91738744 -162.03007973 113.42583075
v -206.32804584 -57.68816154 143.21251939
v -218.97357906 -58.29340688 112.44928363
v -210.81683443 -59.13333919 126.21175299
v -246.01633441 -50.95863849 90.11427799
v -230.47106755 -55.38063508 100.74695871
v -253.18149228 -229.06729178 60.98275715
v -277.05563043 -225.13159588 52.2100164
v -300.05872766 -226.83616439 26.5445316
v -271.48147179 -232.17540732 43.11180761
v -249.68875088 -206.4348673 82.96518908
v -240.67274542 -219.27585862 81.26144974
v -260.07971089 -185.61360404 74.8226835
v -265.88844212 -210.51283932 68.22846
v -255.47254948 -194.16709775 79.66230165
v -282.42483826 -206.50943645 54.66362178
v -303.78146687 -212.13094421 40.84333846
v -280.78751923 -216.23316265 55.86573487
v -422.95681387 -111.35324859 -31.46313645
v -401.45173317 -151.6919586 -22.97719245
v -363.80197314 -176.30252433 0.99436022
v -388.20038276 -140.05276585 -14.86183541
v -395.41586338 -146.48995951 -17.40660787
v -436.46572522 -118.02421427 -48.0029351
v -369.78969322 -187.01989594 -13.58872722
v -405.59054996 -155.40806436 -32.7417201
v -333.52529539 -205.64205537 17.85656752
v -333.48377913 -211.19814357 7.89046298
v -329.82623075 -190.05664468 22.38611467
v -332.21724721 -198.53145192 22.27527598
v -459.79534843 48.77417401 -53.38270785
v -471.13592145 8.42494197 -61.20703646
v -455.87257632 -32.97374797 -49.01323562
v -449.17999474 8.40755775 -46.48793464
v -461.2579103 8.00909313 -52.78175137
v -475.52812469 52.86449797 -72.99388071
v -472.31604694 -34.29266129 -67.70454593
v -477.66706996 9.471655 -72.06564056
v -452.37034221 -75.70141579 -49.24729356
v -458.78900796 -77.16672254 -59.67212135
v -432.42972694 -69.6860182 -37.13695414
v -443.23001671 -73.10384734 -41.93209671
v -451.99383661 134.21395534 -65.05165106
v -427.33512116 163.07084553 -46.51795673
v -407.1993909 197.06751761 -46.66083328
v -431.95440577 168.93939221 -56.85899429
v -460.99966314 91.46524346 -59.76254502
v -466.7119234 94.80209874 -70.68225123
v -440.7921086 85.2064668 -44.56650655
v -438.6107321 124.53094481 -46.08147842
v -452.02048479 88.0835552 -51.09749781
v -411.36302595 149.31077795 -33.74941871
v -397.45324821 181.8659322 -29.48410885
v -420.20587543 156.33812013 -38.76332225
v -347.13050618 229.83631478 -21.34740753
v -315.46663631 225.88597953 2.40917268
v -286.43922064 233.29485959 9.40543485
v -315.71596262 235.08863661 -6.58427331
v -375.51665 209.39338705 -25.01213263
v -378.35359458 217.30046226 -34.76456566
v -365.56258289 189.78581684 -15.19638157
v -342.7252076 210.71550273 -6.12209038
v -371.07292314 199.92767927 -18.48926164
v -312.80147527 202.55544137 8.53542326
v -288.36052006 211.91226903 21.33811498
v -314.44394095 214.62832466 7.26924875
v -264.34776563 214.95313508 33.65978133
v -243.16577981 213.50658499 45.59743655
v -262.06265566 225.38412455 26.54883477
v -268.50042118 191.00454215 34.18692635
v -249.6396862 188.5364404 49.79858492
v -266.62990198 203.05180659 35.66495675
v -240.81616524 158.15431364 57.87032414
v -232.85625115 181.94370371 67.31264328
v -237.0149683 168.57112124 63.11555504
v -228.73287429 199.09735403 67.18134667
v -233.95340129 66.5545712 70.6762897
v -241.6031443 38.00739461 63.27144117
v -249.02414757 11.94387408 75.83966036
v -238.47032487 35.90893627 74.89925412
v -236.73853633 125.85168805 59.73615418
v -236.61890544 92.61168702 56.8934911
v -233.48173996 97.64945098 65.84633579
v -242.42569239 110.56089415 43.91720022
v -240.23276454 62.92950386 50.25838038
v -239.93883398 88.49391429 47.82916438
v -252.88001331 14.97604802 51.27570036
v -243.92405204 36.60064523 51.95414242
v -325.19859714 -88.23543839 55.12038644
v -337.19370892 -61.77757055 44.37021927
v -336.93511865 -90.36180298 34.18380977
v -325.08342668 -111.22881418 45.53101624
v -334.25634759 -88.95962839 44.7071529
v -324.49590867 -39.32813785 55.45732007
v -322.81272732 -16.0062918 46.76146447
v -335.64090922 -33.48429506 33.87779889
v -333.17966965 -35.68111149 44.35532259
v -322.16996866 -15.33882924 30.05876025
v -323.36570563 -39.09207844 24.0382875
v -336.38934564 -62.12799982 26.19390218
v -332.39177563 -35.48805515 26.82366556
v -324.53879737 -89.86909758 24.85810501
v -324.81076891 -112.61268958 29.51856277
v -333.65338965 -89.74740804 27.55391717
v -269.72955415 -192.37926797 59.67896924
v -281.58604965 -182.61299618 42.1617943
v -302.22271994 -192.02609382 36.23939371
v -282.31435697 -196.02309197 49.44618276
v -260.93325321 -165.00140891 67.16101743
v -262.81886923 -174.09152604 56.21096032
v -262.68242598 -181.06259825 66.59182719
v -263.89600465 -153.8091736 46.79554669
v -267.74111962 -164.72280391 42.0061655
v -261.7747867 -160.81730165 46.44994954
v -299.53376996 -160.42478426 24.39094698
v -280.95484235 -164.71273936 34.7173738
v -383.8568439 -87.39596355 -24.92656967
v -373.13821422 -123.75277223 -14.92575387
v -344.53979993 -133.36258604 -3.64661176
v -366.29958232 -111.97313328 -16.09076824
v -403.88689641 -100.79507984 -26.04402047
v -353.76510224 -159.9046301 1.52350671
v -380.60656662 -132.68826129 -14.31856424
v -323.96443189 -167.29246611 16.04274719
v -326.87960546 -180.06620795 19.99092371
v -321.45801623 -150.17815903 10.97311693
v -402.90674664 45.69121984 -35.06838922
v -420.98450549 11.02754269 -38.12478098
v -401.87593101 -24.96739971 -33.43690305
v -404.341631 10.75717232 -34.72579428
v -434.5630681 47.83085133 -41.5362626
v -431.36665902 -28.7072944 -39.67400663
v -435.80077881 9.78777332 -41.81369531
v -408.58166513 -61.84756491 -32.58619137
v -420.86556083 -65.84776542 -34.40414332
v -395.31247301 -58.37575318 -30.42278524
v -365.71915524 145.29410817 -25.04575737
v -390.72269583 135.30001161 -30.53914229
v -389.73190966 105.28935818 -33.16255833
v -379.13108095 128.28181901 -29.8623443
v -382.15765077 164.32159441 -24.03315515
v -416.92014348 114.80950601 -36.7791623
v -401.46282705 142.34153565 -31.40896802
v -413.87081405 80.62572483 -37.08900457
v -428.10117054 83.09931634 -39.97638626
v -397.82083296 77.44258266 -34.77308622
v -335.07169038 187.9458344 -4.62819116
v -308.71206626 177.06514261 2.64770533
v -288.33695986 187.28203168 18.38638594
v -310.70827794 190.3704756 6.63949966
v -353.55180243 168.29754851 -16.62288835
v -359.51882157 179.45089806 -14.98546924
v -328.4075869 160.66587594 -11.24109983
v -348.46314389 155.61576004 -18.89853421
v -287.59561438 158.08980903 7.89741095
v -307.43958711 161.3667345 -2.14064652
v -254.80485819 166.38025204 41.35239874
v -246.09056045 138.85920191 44.20961538
v -243.8213479 148.72703414 51.45754845
v -270.19263775 166.42371259 24.39640815
v -269.6170142 179.22398824 30.14113515
v -257.58175859 140.92655164 28.2385495
v -270.77169239 151.17409184 18.24529641
v -248.17277827 127.56860851 37.16295898
v -308.47394819 -112.09665274 57.64867534
v -289.52491968 -99.30415423 67.33803339
v -310.70130138 -66.81670694 64.22831668
v -309.71188765 -92.10342733 62.18243988
v -268.56035099 -133.7043232 69.56129785
v -266.96580628 -80.46469206 76.6142017
v -267.24040834 -109.73239882 74.20374236
v -265.75085517 -16.56624667 79.16290563
v -288.70969126 -43.30363447 72.34397393
v -266.35232631 -46.93190417 80.23315026
v -306.82153234 -19.78232737 61.63546598
v -309.08639884 -41.08165667 64.74815632
v -274.36370684 -152.02912097 50.49695592
v -293.05574626 -136.97896127 37.2023737
v -275.85417496 -129.73019902 35.36647998
v -275.83404587 -145.57088325 42.37918282
v -291.24870234 -135.47248137 54.3705204
v -271.84596856 -148.01794095 60.52207532
v -311.34108642 -130.26590749 39.34404956
v -310.06803542 -125.028225 49.15917158
v -309.12814384 -115.38455771 28.11544463
v -310.49783738 -127.10289441 32.67509965
v -306.10832184 -18.20310822 29.31805809
v -290.38967026 -40.9828411 29.00396984
v -310.66493176 -67.65755421 24.35908068
v -308.61050582 -40.42700354 25.60452566
v -269.57915777 -11.5733157 38.42212834
v -274.87276712 -76.07792139 29.32293311
v -272.4094689 -41.40692457 32.28549869
v -292.54485606 -100.73240515 27.51250098
v -275.63344112 -106.26882173 30.56783483
v -309.99563929 -94.47728831 25.35341231
v -287.61265549 -1.59248604 61.79884334
v -307.66947054 -0.5347935 43.3623348
v -307.12895854 -5.85207741 53.314572
v -267.99444888 8.43043172 58.20176802
v -266.78498752 1.79057465 70.12262517
v -287.86221054 0.23422949 41.41810423
v -268.57373226 4.57479473 47.21519833
v -306.69355246 -4.73171018 35.26929419
v 479.1085306 -205.44899903 -38.38372866
v 430.41750348 -235.41619191 71.60874724
v 449.05739024 190.30963083 -103.37512825
v 469.21130531 -18.68757899 -134.56294069
v 380.02167911 0.15691545 40.29041733
v 337.67326178 19.22603233 2.91979125
v 345.8190269 138.54308359 3.02148036
v 389.03848515 104.18957753 38.12702549
v 355.66169776 198.4070175 -98.61779921
v 429.66838085 212.42739091 94.22727578
v 349.16994967 239.3857413 -4.82556496
v 337.66742891 -229.26034812 11.62766998
v 349.67489264 -169.98564777 -71.88998274
v 349.73184883 17.36226095 -135.84907275
v 370.24694395 -135.97387887 38.71086937
v 335.38392012 -136.6573532 18.11963252
v 429.3500895 -7.66689848 144.38260892
v 211.39154302 53.83069462 -137.78789935
v 248.22481656 189.12933379 -114.10379389
v 225.76852167 202.08515247 -59.39105739
v 156.96955617 55.21228263 -86.10859487
v 250.14119808 42.55108074 -31.22130137
v 274.03512221 136.99771793 -25.2733677
v 221.19258325 -99.42538629 -109.96312573
v 195.44575288 -118.80284433 -62.09470389
v 258.19180747 -80.9116495 -23.8917511
v 390.82231199 -7.3256188 89.54863321
v 400.90973437 133.63844616 67.28267838
v 383.38827055 -157.04584087 79.32408136
v 330.66673491 -202.75718981 40.17726264
v 220.42996496 -106.36992469 -27.72258413
v 186.20180828 47.76039949 -46.65514338
v 243.92119279 173.14591597 -25.30314676
v 345.45418702 199.57313268 21.35274003
v 313.58982677 -107.47062031 27.03576448
v 315.93623899 -22.48786097 26.7601188
v 314.93310087 -23.44582299 54.80812811
v 313.41735701 -105.16538124 53.50431161
v 375.15409752 123.22163856 22.81528761
v 341.2942118 86.41009529 -1.08421205
v 369.81817131 6.62750512 23.48683888
v 389.47675049 63.05027844 39.74657431
v 372.11757752 73.33304455 19.09487868
v 393.69894291 222.50657866 30.5045597
v 434.04863243 215.72353052 -11.27182243
v 402.88112778 189.4143435 -87.47254133
v 353.76647468 235.31874878 -49.96743773
v 400.04052337 224.30950526 -25.80577374
v 407.53575268 -178.92296675 -49.04941939
v 479.63177275 -233.12696463 3.22437251
v 399.23696067 -233.54281347 49.01006186
v 345.06475762 -215.40283741 -28.13174234
v 405.79572951 -222.63787527 5.11965278
v 349.41092698 -86.36205994 -111.05629438
v 406.84553053 2.63965655 -128.57817993
v 476.4815691 -115.90471187 -93.51757501
v 408.02068092 -98.6764924 -96.94549015
v 366.60403491 -142.53413451 34.53775592
v 370.7796788 -79.06297495 30.85446001
v 334.89521768 -64.67387309 10.63243769
v 366.07816225 -77.23580194 25.62222439
v 180.73847404 137.90261233 -77.92389395
v 233.03684117 202.84685579 -90.25431674
v 227.52204049 136.9849085 -131.25856646
v 170.86858315 58.61730235 -115.21070121
v 192.46310108 140.99471609 -107.27692064
v 306.21308464 142.67641063 -14.84450838
v 260.67248991 100.9963708 -30.49871254
v 293.74985699 32.12329363 -17.17024824
v 300.52135378 94.94025754 -18.84139216
v 264.17049233 -188.89281691 -28.04073252
v 202.88333978 -111.97359076 -91.97293846
v 275.4778981 -138.69405182 -96.10730197
v 269.16834121 -178.03682901 -62.59977553
v 208.84406857 -34.55479703 -128.20887963
v 278.40290748 37.07001917 -143.10055128
v 275.25464811 -60.0601926 -125.6256646
v 286.97675902 235.49625082 -34.74569463
v 295.85963795 200.89158852 -110.74136265
v 291.94715912 232.88221311 -72.05104411
v 159.48878126 -33.40698103 -81.31339511
v 171.27939972 -29.59480458 -110.20416738
v 292.13140898 -111.29011643 -6.82147642
v 249.94939981 -27.04664392 -28.84834104
v 291.78829938 -43.87411137 -11.66392523
v 352.77019875 119.09425876 -131.79491825
v 287.93403482 130.17852891 -138.18810811
v 457.14151001 89.61931379 -138.26536496
v 404.55984871 106.90517568 -125.79927806
v 430.31411312 93.19771823 134.66417232
v 409.93980731 155.53753105 81.69920042
v 404.48264905 68.98058485 80.35855682
v 416.38878107 -11.61723373 113.3311325
v 417.54906339 78.64575367 100.60333875
v 407.6829467 -181.99860125 96.60734133
v 428.02282718 -110.94243203 137.88102502
v 387.43799322 -89.72910887 86.37040894
v 414.15010527 -104.37760159 108.61103085
v 367.72280096 -200.78316589 65.88467829
v 331.42546461 -220.36694717 36.57279617
v 379.17808696 -220.26492924 67.02451699
v 203.25424126 -115.34338456 -37.92560586
v 275.1328442 -168.75045319 2.28475256
v 266.54652635 -182.4386965 -3.8434709
v 164.74087435 50.64572253 -62.0635524
v 189.96354761 -31.13330805 -43.39335763
v 168.46452852 -34.08267821 -56.99708161
v 205.68723147 119.48494623 -40.26119583
v 230.76305382 190.07814622 -36.6474511
v 187.33795855 129.608052 -54.37066336
v 295.00255015 199.43314396 -3.78567123
v 346.54138699 223.60864671 17.68326858
v 288.58365567 221.20367712 -11.90554587
v 381.50196831 177.16075582 46.54358987
v 387.81152521 200.9432837 50.34006906
v 394.52320655 118.21132337 51.68791795
v 382.49138204 17.89934185 63.02260093
v 396.98238746 64.71413128 60.57971773
v 306.76800724 -63.39933528 55.75322351
v 309.78977353 -12.05092427 37.06358586
v 307.78132427 -64.19717948 23.26866406
v 307.13341897 -114.75506595 35.50801269
v 294.08827743 -61.38093584 33.45049876
v 371.58152594 -163.41852993 56.64456508
v 333.29369641 -178.36346936 30.68303388
v 366.11098641 -181.05893841 50.79177285
v 240.25220742 -94.52623862 -25.44560872
v 285.3150792 -148.6767114 -0.59736811
v 214.44258799 47.42232216 -37.97905948
v 216.69327263 -26.25154459 -36.68978225
v 260.16114223 155.0640398 -24.37762289
v 230.00924202 110.11073434 -34.80223624
v 346.3204244 173.90990669 13.45640129
v 302.8491237 175.38116067 -7.52422207
v 377.81983041 154.74792148 34.85883503
v 344.41833913 -120.91594202 62.74136543
v 346.48374458 -17.91581112 70.19813787
v 344.50709014 -72.58277822 69.99018486
v 341.51723305 -123.17634809 31.09845383
v 341.39325611 -141.02490973 44.68782439
v 345.82440229 -15.02637076 33.90361789
v 341.84490272 -71.94093452 26.85287277
v 346.13617455 4.4883311 51.0390691
# The following MRGB block contains ZBrush Vertex Color (Polypaint) and masking output as 4 hexadecimal values per vertex. The vertex color format is MMRRGGBB with up to 64 entries per MRGB line.
#MRGB ffe8b79dffe8b79dffe8b79dffe8b79dffe8b79dffe8b79dffe8b79dffe8b79dffe8b79dffe8b79dffe8b79dffe8b79dffe8b79dffe8b79dffe8b79dffe8b79dffe8b79dffe8b79dffe8b79dffe8b79dffe8b79dffe8b79dffe8b79dffe8b79dffe8b79dffe8b79dffe8b79dffe8b79dffe8b79dffe8b79dffe8b79dffe8b79dffe8b79dffe8b79dffe8b79dffe8b79dffe8b79dffe8b79dffe8b79dffe8b79dffe8b79dffe8b79dffe8b79dffe8b79dffe8b79dffe8b79dffe8b79dffe8b79dffe8b79dffe8b79dffe8b79dffe8b79dffe8b79dffe8b79dffe8b79dffe8b79dffe8b79dffe8b79dffe8b79dffe8b79dffe8b79dffe8b79dffe8b79dffe8b79d
#MRGB ffe8b79dffe8b79dffe8b79dffe8b79dffe8b79dffe8b79dffe8b79dffe8b79dffe8b79dffe8b79dffe8b79dffe8b79dffe8b79dffe8b79dffe8b79dffe8b79dffe8b79dffe8b79dffe8b79dffe8b79dffe8b79dffe8b79dffe8b79dffe8b79dffe8b79dffe8b79dffe8b79dffe8b79dffe8b79dffe8b79dffe8b79dffe8b79dffe8b79dffe8b79dffe8b79dffe8b79dffe8b79dffe8b79dffe8b79dffe8b79dffe8b79dffe8b79dffe8b79dffe8b79dffe8b79dffe8b79dffe8b79dffe8b79dffe8b79dffe8b79dffe8b79dffe8b79dffe8b79dffe8b79dffe8b79dffe8b79dffe8b79dffe8b79dffe8b79dffe8b79dffe8b79dffe8b79dffe8b79dffe8b79d
#MRGB ffe8b79dffe8b79dffe8b79dffe8b79dffe8b79dffe8b79dffe8b79dffe8b79dffe8b79dffe8b79dffe8b79dffe8b79dffe8b79dffe8b79dffe8b79dffe8b79dffe8b79dffe8b79dffe8b79dffe8b79dffe8b79dffe8b79dffe8b79dffe8b79dffe8b79dffe8b79dffe8b79dffe8b79dffe8b79dffe8b79dffe8b79dffe8b79dffe8b79dffe8b79dffe8b79dffe8b79dffe8b79dffe8b79dffe8b79dffe8b79dffe8b79dffe8b79dffe8b79dffe8b79dffe8b79dffe8b79dffe8b79dffe8b79dffe8b79dffe8b79dffe8b79dffe8b79dffe8b79dffe8b79dffe8b79dffe8b79dffe8b79dffe8b79dffe8b79dffe8b79dffe8b79dffe8b79dffe8b79dffe8b79d
#MRGB ffe8b79dffe8b79dffe8b79dffe8b79dffe8b79dffe8b79dffe8b79dffe8b79dffe8b79dffe8b79dffe8b79dffe8b79dffe8b79dffe8b79dffe8b79dffe8b79dffe8b79dffe8b79dffe8b79dffe8b79dffe8b79dffe8b79dffe8b79dffe8b79dffe8b79dffe8b79dffe8b79dffe8b79dffe8b79dffe8b79dffe8b79dffe8b79dffe8b79dffe8b79dffe8b79dffe8b79dffe8b79dffe8b79dffe8b79dffe8b79dffe8b79dffe8b79dffe8b79dffe8b79dffe8b79dffe8b79dffe8b79dffe8b79dffe8b79dffe8b79dffe8b79dffe8b79dffe8b79dffe8b79dffe8b79dffe8b79dffe8b79dffe8b79dffe8b79dffe8b79dffe8b79dffe8b79dffe8b79dffe8b79d
#MRGB ffe8b79dffe8b79dffe8b79dffe8b79dffe8b79dffe8b79dffe8b79dffe8b79dffe8b79dffe8b79dffe8b79dffe8b79dffe8b79dffe8b79dffe8b79dffe8b79dffe8b79dffe8b79dffe8b79dffe8b79dffe8b79dffe8b79dffe8b79dffe8b79dffe8b79dffe8b79dffe8b79dffe8b79dffe8b79dffe8b79dffe8b79dffe8b79dffe8b79dffe8b79dffe8b79dffe8b79dffe8b79dffe8b79dffe8b79dffe8b79dffe8b79dffe8b79dffe8b79dffe8b79dffe8b79dffe8b79dffe8b79dffe8b79dffe8b79dffe8b79dffe8b79dffe8b79dffe8b79dffe8b79dffe8b79dffe8b79dffe8b79dffe8b79dffe8b79dffe8b79dffe8b79dffe8b79dffe8b79dffe8b79d
#MRGB ffe8b79dffe8b79dffe8b79dffe8b79dffe8b79dffe8b79dffe8b79dffe8b79dffe8b79dffe8b79dffe8b79dffe8b79dffe8b79dffe8b79dffe8b79dffe8b79dffe8b79dffe8b79dffe8b79dffe8b79dffe8b79dffe8b79dffe8b79dffe8b79dffe8b79dffe8b79dffe8b79dffe8b79dffe8b79dffe8b79dffe8b79dffe8b79dffe8b79dffe8b79dffe8b79dffe8b79dffe8b79dffe8b79dffe8b79dffe8b79dffe8b79dffe8b79dffe8b79dffe8b79dffe8b79dffe8b79dffe8b79dffe8b79dffe8b79dffe8b79dffe8b79dffe8b79dffe8b79dffe8b79dffe8b79dffe8b79dffe8b79dffe8b79dffe8b79dffe8b79dffe8b79dffe8b79dffe8b79dffe8b79d
#MRGB ffe8b79dffe8b79dffe8b79dffe8b79dffe8b79dffe8b79dffe8b79dffe8b79dffe8b79dffe8b79dffe8b79dffe8b79dffe8b79dffe8b79dffe8b79dffe8b79dffe8b79dffe8b79dffe8b79dffe8b79dffe8b79dffe8b79dffe8b79dffe8b79dffe8b79dffe8b79dffe8b79dffe8b79dffe8b79dffe8b79dffe8b79dffe8b79dffe8b79dffe8b79dffe8b79dffe8b79dffe8b79dffe8b79dffe8b79dffe8b79dffe8b79dffe8b79dffe8b79dffe8b79dffe8b79dffe8b79dffe8b79dffe8b79dffe8b79dffe8b79dffe8b79dffe8b79dffe8b79dffe8b79dffe8b79dffe8b79dffe8b79dffe8b79dffe8b79dffe8b79dffe8b79dffe8b79dffe8b79dffe8b79d
#MRGB ffe8b79dffe8b79dffe8b79dffe8b79dffe8b79dffe8b79dffe8b79dffe8b79dffe8b79dffe8b79dffe8b79dffe8b79dffe8b79dffe8b79dffe8b79dffe8b79dffe8b79dffe8b79dffe8b79dffe8b79dffe8b79dffe8b79dffe8b79dffe8b79dffe8b79dffe8b79dffe8b79dffe8b79dffe8b79dffe8b79dffe8b79dffe8b79dffe8b79dffe8b79dffe8b79dffe8b79dffe8b79dffe8b79dffe8b79dffe8b79dffe8b79dffe8b79dffe8b79dffe8b79dffe8b79dffe8b79dffe8b79dffe8b79dffe8b79dffe8b79dffe8b79dffe8b79dffe8b79dffe8b79dffe8b79dffe8b79dffe8b79dffe8b79dffe8b79dffe8b79dffe8b79dffe8b79dffe8b79dffe8b79d
#MRGB ffe8b79dffe8b79dffe8b79dffe8b79dffe8b79dffe8b79dffe8b79dffe8b79dffe8b79dffe8b79dffe8b79dffe8b79dffe8b79dffe8b79dffe8b79dffe8b79dffe8b79dffe8b79dffe8b79dffe8b79dffe8b79dffe8b79dffe8b79dffe8b79dffe8b79dffe8b79dffe8b79dffe8b79dffe8b79dffe8b79dffe8b79dffe8b79dffe8b79dffe8b79dffe8b79dffe8b79dffe8b79dffe8b79dffe8b79dffe8b79dffe8b79dffe8b79dffe8b79dffe8b79dffe8b79dffe8b79dffe8b79dffe8b79dffe8b79dffe8b79dffe8b79dffe8b79dffe8b79dffe8b79dffe8b79dffe8b79dffe8b79dffe8b79dffe8b79dffe8b79dffe8b79dffe8b79dffe8b79dffe8b79d
#MRGB ffe8b79dffe8b79dffe8b79dffe8b79dffe8b79dffe8b79dffe8b79dffe8b79dffe8b79dffe8b79dffe8b79dffe8b79dffe8b79dffe8b79dffe8b79dffe8b79dffe8b79dffe8b79dffe8b79dffe8b79dffe8b79dffe8b79dffe8b79dffe8b79dffe8b79dffe8b79dffe8b79dffe8b79dffe8b79dffe8b79dffe8b79dffe8b79dffe8b79dffe8b79dffe8b79dffe8b79dffe8b79dffe8b79dffe8b79dffe8b79dffe8b79dffe8b79dffe8b79dffe8b79dffe8b79dffe8b79dffe8b79dffe8b79dffe8b79dffe8b79dffe8b79dffe8b79dffe8b79dffe8b79dffe8b79dffe8b79dffe8b79dffe8b79dffe8b79dffe8b79dffe8b79dffe8b79dffe8b79dffe8b79d
#MRGB ffe8b79dffe8b79dffe8b79dffe8b79dffe8b79dffe8b79dffe8b79dffe8b79dffe8b79dffe8b79dffe8b79dffe8b79dffe8b79dffe8b79dffe8b79dffe8b79dffe8b79dffe8b79dffe8b79dffe8b79dffe8b79dffe8b79dffe8b79dffe8b79dffe8b79dffe8b79dffe8b79dffe8b79dffe8b79dffe8b79dffe8b79dffe8b79dffe8b79dffe8b79dffe8b79dffe8b79dffe8b79dffe8b79dffe8b79dffe8b79dffe8b79dffe8b79dffe8b79dffe8b79dffe8b79dffe8b79dffe8b79dffe8b79dffe8b79dffe8b79dffe8b79dffe8b79dffe8b79dffe8b79dffe8b79dffe8b79dffe8b79dffe8b79dffe8b79dffe8b79dffe8b79dffe8b79dffe8b79dffe8b79d
#MRGB ffe8b79dffe8b79dffe8b79dffe8b79dffe8b79dffe8b79dffe8b79dffe8b79dffe8b79dffe8b79dffe8b79dffe8b79dffe8b79dffe8b79dffe8b79dffe8b79dffe8b79dffe8b79dffe8b79dffe8b79dffe8b79dffe8b79dffe8b79dffe8b79dffe8b79dffe8b79dffe8b79dffe8b79dffe8b79dffe8b79dffe8b79dffe8b79dffe8b79dffe8b79d
# End of MRGB block 
g Group33460
f 8 7 6 5
f 11 10 3 9
f 13 1 2 12
f 13 14 4 1
f 16 15 5 6
f 21 20 19 18
f 6 7 23 22
f 13 12 25 24
f 24 18 14 13
f 20 11 9 19
f 25 21 18 24
f 26 16 6 22
f 18 19 9 14
f 3 4 14 9
f 17 10 28 27
f 29 2 17 27
f 12 2 29 30
f 31 25 12 30
f 32 21 25 31
f 20 21 32 33
f 11 20 33 34
f 11 34 28 10
f 27 28 8 5
f 38 37 36 35
f 30 29 15 16
f 26 31 30 16
f 22 32 31 26
f 23 33 32 22
f 34 33 23 7
f 28 34 7 8
f 38 29 27 37
f 15 29 38 35
f 36 5 15 35
f 37 27 5 36
f 46 182 186 185
f 182 77 183 186
f 186 183 81 184
f 185 186 184 80
f 77 187 190 183
f 187 45 188 190
f 190 188 78 189
f 183 190 189 81
f 81 189 194 193
f 189 78 191 194
f 194 191 44 192
f 193 194 192 79
f 80 184 197 196
f 184 81 193 197
f 197 193 79 195
f 196 197 195 43
f 49 198 202 201
f 198 82 199 202
f 202 199 86 200
f 201 202 200 85
f 82 203 206 199
f 203 48 204 206
f 206 204 83 205
f 199 206 205 86
f 86 205 210 209
f 205 83 207 210
f 210 207 41 208
f 209 210 208 84
f 85 200 213 212
f 200 86 209 213
f 213 209 84 211
f 212 213 211 47
f 51 214 218 217
f 214 87 215 218
f 218 215 91 216
f 217 218 216 90
f 87 219 222 215
f 219 39 220 222
f 222 220 88 221
f 215 222 221 91
f 91 221 226 225
f 221 88 223 226
f 226 223 40 224
f 225 226 224 89
f 90 216 229 228
f 216 91 225 229
f 229 225 89 227
f 228 229 227 50
f 51 230 233 214
f 230 92 231 233
f 233 231 95 232
f 214 233 232 87
f 92 234 237 231
f 234 52 235 237
f 237 235 93 236
f 231 237 236 95
f 95 236 241 240
f 236 93 238 241
f 241 238 42 239
f 240 241 239 94
f 87 232 243 219
f 232 95 240 243
f 243 240 94 242
f 219 243 242 39
f 54 244 248 247
f 244 96 245 248
f 248 245 99 246
f 247 248 246 98
f 96 249 252 245
f 249 53 250 252
f 252 250 97 251
f 245 252 251 99
f 99 251 255 254
f 251 97 253 255
f 255 253 43 195
f 254 255 195 79
f 98 246 257 256
f 246 99 254 257
f 257 254 79 192
f 256 257 192 44
f 59 258 262 261
f 258 100 259 262
f 262 259 104 260
f 261 262 260 103
f 100 263 266 259
f 263 58 264 266
f 266 264 101 265
f 259 266 265 104
f 104 265 270 269
f 265 101 267 270
f 270 267 57 268
f 269 270 268 102
f 103 260 273 272
f 260 104 269 273
f 273 269 102 271
f 272 273 271 56
f 44 191 277 276
f 191 78 274 277
f 277 274 108 275
f 276 277 275 107
f 78 188 280 274
f 188 45 278 280
f 280 278 105 279
f 274 280 279 108
f 108 279 284 283
f 279 105 281 284
f 284 281 61 282
f 283 284 282 106
f 107 275 287 286
f 275 108 283 287
f 287 283 106 285
f 286 287 285 60
f 51 217 291 290
f 217 90 288 291
f 291 288 112 289
f 290 291 289 111
f 90 228 294 288
f 228 50 292 294
f 294 292 109 293
f 288 294 293 112
f 112 293 298 297
f 293 109 295 298
f 298 295 63 296
f 297 298 296 110
f 111 289 301 300
f 289 112 297 301
f 301 297 110 299
f 300 301 299 62
f 62 302 305 300
f 302 113 303 305
f 305 303 115 304
f 300 305 304 111
f 113 306 309 303
f 306 56 307 309
f 309 307 114 308
f 303 309 308 115
f 115 308 312 311
f 308 114 310 312
f 312 310 52 234
f 311 312 234 92
f 111 304 313 290
f 304 115 311 313
f 313 311 92 230
f 290 313 230 51
f 58 314 317 264
f 314 116 315 317
f 317 315 118 316
f 264 317 316 101
f 116 318 320 315
f 318 49 201 320
f 320 201 85 319
f 315 320 319 118
f 118 319 323 322
f 319 85 212 323
f 323 212 47 321
f 322 323 321 117
f 101 316 325 267
f 316 118 322 325
f 325 322 117 324
f 267 325 324 57
f 63 326 329 296
f 326 119 327 329
f 329 327 120 328
f 296 329 328 110
f 119 330 332 327
f 330 59 261 332
f 332 261 103 331
f 327 332 331 120
f 120 331 334 333
f 331 103 272 334
f 334 272 56 306
f 333 334 306 113
f 110 328 335 299
f 328 120 333 335
f 335 333 113 302
f 299 335 302 62
f 64 336 340 339
f 336 121 337 340
f 340 337 123 338
f 339 340 338 122
f 121 341 343 337
f 341 54 247 343
f 343 247 98 342
f 337 343 342 123
f 123 342 345 344
f 342 98 256 345
f 345 256 44 276
f 344 345 276 107
f 122 338 347 346
f 338 123 344 347
f 347 344 107 286
f 346 347 286 60
f 56 271 350 307
f 271 102 348 350
f 350 348 125 349
f 307 350 349 114
f 102 268 352 348
f 268 57 324 352
f 352 324 117 351
f 348 352 351 125
f 125 351 355 354
f 351 117 321 355
f 355 321 47 353
f 354 355 353 124
f 114 349 357 310
f 349 125 354 357
f 357 354 124 356
f 310 357 356 52
f 41 358 361 208
f 358 126 359 361
f 361 359 127 360
f 208 361 360 84
f 126 362 364 359
f 362 42 238 364
f 364 238 93 363
f 359 364 363 127
f 127 363 366 365
f 363 93 235 366
f 366 235 52 356
f 365 366 356 124
f 84 360 367 211
f 360 127 365 367
f 367 365 124 353
f 211 367 353 47
f 55 368 372 371
f 368 128 369 372
f 372 369 132 370
f 371 372 370 131
f 128 373 376 369
f 373 48 374 376
f 376 374 129 375
f 369 376 375 132
f 132 375 380 379
f 375 129 377 380
f 380 377 66 378
f 379 380 378 130
f 131 370 383 382
f 370 132 379 383
f 383 379 130 381
f 382 383 381 65
f 67 384 388 387
f 384 133 385 388
f 388 385 136 386
f 387 388 386 135
f 133 389 392 385
f 389 40 390 392
f 392 390 134 391
f 385 392 391 136
f 136 391 395 394
f 391 134 393 395
f 395 393 55 371
f 394 395 371 131
f 135 386 397 396
f 386 136 394 397
f 397 394 131 382
f 396 397 382 65
f 50 227 401 400
f 227 89 398 401
f 401 398 139 399
f 400 401 399 138
f 89 224 403 398
f 224 40 389 403
f 403 389 133 402
f 398 403 402 139
f 139 402 406 405
f 402 133 384 406
f 406 384 67 404
f 405 406 404 137
f 138 399 409 408
f 399 139 405 409
f 409 405 137 407
f 408 409 407 68
f 69 410 414 413
f 410 140 411 414
f 414 411 142 412
f 413 414 412 141
f 140 415 417 411
f 415 63 295 417
f 417 295 109 416
f 411 417 416 142
f 142 416 419 418
f 416 109 292 419
f 419 292 50 400
f 418 419 400 138
f 141 412 421 420
f 412 142 418 421
f 421 418 138 408
f 420 421 408 68
f 70 422 426 425
f 422 143 423 426
f 426 423 145 424
f 425 426 424 144
f 143 427 429 423
f 427 59 330 429
f 429 330 119 428
f 423 429 428 145
f 145 428 431 430
f 428 119 326 431
f 431 326 63 415
f 430 431 415 140
f 144 424 433 432
f 424 145 430 433
f 433 430 140 410
f 432 433 410 69
f 58 263 437 436
f 263 100 434 437
f 437 434 148 435
f 436 437 435 147
f 100 258 439 434
f 258 59 427 439
f 439 427 143 438
f 434 439 438 148
f 148 438 442 441
f 438 143 422 442
f 442 422 70 440
f 441 442 440 146
f 147 435 445 444
f 435 148 441 445
f 445 441 146 443
f 444 445 443 71
f 49 318 449 448
f 318 116 446 449
f 449 446 151 447
f 448 449 447 150
f 116 314 451 446
f 314 58 436 451
f 451 436 147 450
f 446 451 450 151
f 151 450 454 453
f 450 147 444 454
f 454 444 71 452
f 453 454 452 149
f 150 447 457 456
f 447 151 453 457
f 457 453 149 455
f 456 457 455 72
f 49 448 460 198
f 448 150 458 460
f 460 458 153 459
f 198 460 459 82
f 150 456 463 458
f 456 72 461 463
f 463 461 152 462
f 458 463 462 153
f 153 462 466 465
f 462 152 464 466
f 466 464 66 377
f 465 466 377 129
f 82 459 467 203
f 459 153 465 467
f 467 465 129 374
f 203 467 374 48
f 65 381 471 470
f 381 130 468 471
f 471 468 156 469
f 470 471 469 155
f 130 378 474 468
f 378 66 472 474
f 474 472 154 473
f 468 474 473 156
f 156 473 477 476
f 473 154 475 477
f 477 475 46 185
f 476 477 185 80
f 155 469 479 478
f 469 156 476 479
f 479 476 80 196
f 478 479 196 43
f 76 480 484 483
f 480 157 481 484
f 484 481 161 482
f 483 484 482 160
f 157 485 488 481
f 485 75 486 488
f 488 486 158 487
f 481 488 487 161
f 161 487 492 491
f 487 158 489 492
f 492 489 74 490
f 491 492 490 159
f 160 482 495 494
f 482 161 491 495
f 495 491 159 493
f 494 495 493 73
f 68 407 499 498
f 407 137 496 499
f 499 496 164 497
f 498 499 497 163
f 137 404 502 496
f 404 67 500 502
f 502 500 162 501
f 496 502 501 164
f 164 501 505 504
f 501 162 503 505
f 505 503 53 249
f 504 505 249 96
f 163 497 507 506
f 497 164 504 507
f 507 504 96 244
f 506 507 244 54
f 64 508 511 336
f 508 165 509 511
f 511 509 166 510
f 336 511 510 121
f 165 512 514 509
f 512 69 413 514
f 514 413 141 513
f 509 514 513 166
f 166 513 516 515
f 513 141 420 516
f 516 420 68 498
f 515 516 498 163
f 121 510 517 341
f 510 166 515 517
f 517 515 163 506
f 341 517 506 54
f 60 518 521 346
f 518 167 519 521
f 521 519 168 520
f 346 521 520 122
f 167 522 524 519
f 522 70 425 524
f 524 425 144 523
f 519 524 523 168
f 168 523 526 525
f 523 144 432 526
f 526 432 69 512
f 525 526 512 165
f 122 520 527 339
f 520 168 525 527
f 527 525 165 508
f 339 527 508 64
f 61 528 531 282
f 528 169 529 531
f 531 529 170 530
f 282 531 530 106
f 169 532 534 529
f 532 71 443 534
f 534 443 146 533
f 529 534 533 170
f 170 533 536 535
f 533 146 440 536
f 536 440 70 522
f 535 536 522 167
f 106 530 537 285
f 530 170 535 537
f 537 535 167 518
f 285 537 518 60
f 72 455 541 540
f 455 149 538 541
f 541 538 172 539
f 540 541 539 171
f 149 452 543 538
f 452 71 532 543
f 543 532 169 542
f 538 543 542 172
f 172 542 545 544
f 542 169 528 545
f 545 528 61 281
f 544 545 281 105
f 171 539 547 546
f 539 172 544 547
f 547 544 105 278
f 546 547 278 45
f 66 464 550 472
f 464 152 548 550
f 550 548 173 549
f 472 550 549 154
f 152 461 552 548
f 461 72 540 552
f 552 540 171 551
f 548 552 551 173
f 173 551 554 553
f 551 171 546 554
f 554 546 45 187
f 553 554 187 77
f 154 549 555 475
f 549 173 553 555
f 555 553 77 182
f 475 555 182 46
f 76 556 559 480
f 556 174 557 559
f 559 557 176 558
f 480 559 558 157
f 174 560 562 557
f 560 67 387 562
f 562 387 135 561
f 557 562 561 176
f 176 561 565 564
f 561 135 396 565
f 565 396 65 563
f 564 565 563 175
f 157 558 567 485
f 558 176 564 567
f 567 564 175 566
f 485 567 566 75
f 53 503 571 570
f 503 162 568 571
f 571 568 178 569
f 570 571 569 177
f 162 500 573 568
f 500 67 560 573
f 573 560 174 572
f 568 573 572 178
f 178 572 575 574
f 572 174 556 575
f 575 556 76 483
f 574 575 483 160
f 177 569 577 576
f 569 178 574 577
f 577 574 160 494
f 576 577 494 73
f 74 578 581 490
f 578 179 579 581
f 581 579 180 580
f 490 581 580 159
f 179 582 584 579
f 582 43 253 584
f 584 253 97 583
f 579 584 583 180
f 180 583 586 585
f 583 97 250 586
f 586 250 53 570
f 585 586 570 177
f 159 580 587 493
f 580 180 585 587
f 587 585 177 576
f 493 587 576 73
f 75 566 590 486
f 566 175 588 590
f 590 588 181 589
f 486 590 589 158
f 175 563 592 588
f 563 65 470 592
f 592 470 155 591
f 588 592 591 181
f 181 591 594 593
f 591 155 478 594
f 594 478 43 582
f 593 594 582 179
f 158 589 595 489
f 589 181 593 595
f 595 593 179 578
f 489 595 578 74
g Group16734
f 603 634 638 637
f 634 602 635 638
f 638 635 601 636
f 637 638 636 600
f 606 639 643 642
f 639 605 640 643
f 643 640 598 641
f 642 643 641 604
f 608 644 648 647
f 644 596 645 648
f 648 645 597 646
f 647 648 646 607
f 608 649 652 644
f 649 609 650 652
f 652 650 599 651
f 644 652 651 596
f 611 653 656 655
f 653 610 654 656
f 656 654 600 636
f 655 656 636 601
f 616 657 661 660
f 657 615 658 661
f 661 658 614 659
f 660 661 659 613
f 601 635 665 664
f 635 602 662 665
f 665 662 618 663
f 664 665 663 617
f 608 647 669 668
f 647 607 666 669
f 669 666 620 667
f 668 669 667 619
f 619 670 672 668
f 670 613 671 672
f 672 671 609 649
f 668 672 649 608
f 615 673 675 658
f 673 606 642 675
f 675 642 604 674
f 658 675 674 614
f 620 676 677 667
f 676 616 660 677
f 677 660 613 670
f 667 677 670 619
f 621 678 680 679
f 678 611 655 680
f 680 655 601 664
f 679 680 664 617
f 613 659 682 671
f 659 614 674 682
f 682 674 604 681
f 671 682 681 609
f 598 683 684 641
f 683 599 650 684
f 684 650 609 681
f 641 684 681 604
f 612 685 689 688
f 685 605 686 689
f 689 686 623 687
f 688 689 687 622
f 624 690 693 692
f 690 597 691 693
f 693 691 612 688
f 692 693 688 622
f 607 646 696 695
f 646 597 690 696
f 696 690 624 694
f 695 696 694 625
f 626 697 699 698
f 697 620 666 699
f 699 666 607 695
f 698 699 695 625
f 627 700 702 701
f 700 616 676 702
f 702 676 620 697
f 701 702 697 626
f 615 657 705 704
f 657 616 700 705
f 705 700 627 703
f 704 705 703 628
f 606 673 708 707
f 673 615 704 708
f 708 704 628 706
f 707 708 706 629
f 606 707 710 639
f 707 629 709 710
f 710 709 623 686
f 639 710 686 605
f 622 687 713 712
f 687 623 711 713
f 713 711 603 637
f 712 713 637 600
f 633 714 718 717
f 714 632 715 718
f 718 715 631 716
f 717 718 716 630
f 625 694 721 720
f 694 624 719 721
f 721 719 610 653
f 720 721 653 611
f 621 722 723 678
f 722 626 698 723
f 723 698 625 720
f 678 723 720 611
f 617 724 725 679
f 724 627 701 725
f 725 701 626 722
f 679 725 722 621
f 618 726 727 663
f 726 628 703 727
f 727 703 627 724
f 663 727 724 617
f 629 706 729 728
f 706 628 726 729
f 729 726 618 662
f 728 729 662 602
f 623 709 730 711
f 709 629 728 730
f 730 728 602 634
f 711 730 634 603
f 633 731 733 714
f 731 624 692 733
f 733 692 622 732
f 714 733 732 632
f 610 719 735 734
f 719 624 731 735
f 735 731 633 717
f 734 735 717 630
f 631 736 737 716
f 736 600 654 737
f 737 654 610 734
f 716 737 734 630
f 632 732 738 715
f 732 622 712 738
f 738 712 600 736
f 715 738 736 631

 